<svg width="20" height="22" viewBox="0 0 20 22" fill="none" xmlns="http://www.w3.org/2000/svg">
<path d="M13.4654 20.9234V18.0534C13.5029 17.5766 13.4385 17.0972 13.2764 16.6472C13.1144 16.1972 12.8583 15.7868 12.5254 15.4434C15.6654 15.0934 18.9654 13.9034 18.9654 8.4434C18.9652 7.04723 18.4281 5.7046 17.4654 4.6934C17.9213 3.47191 17.889 2.12175 17.3754 0.9234C17.3754 0.9234 16.1954 0.5734 13.4654 2.4034C11.1734 1.78222 8.7574 1.78222 6.46541 2.4034C3.73541 0.5734 2.55541 0.9234 2.55541 0.9234C2.04179 2.12175 2.00955 3.47191 2.46541 4.6934C1.49554 5.7121 0.957932 7.06686 0.965409 8.4734C0.965409 13.8934 4.26541 15.0834 7.40541 15.4734C7.07641 15.8134 6.82267 16.2188 6.66072 16.6633C6.49876 17.1078 6.43222 17.5815 6.46541 18.0534V20.9234" stroke="#EEEEEE" stroke-width="1.5" stroke-linecap="round" stroke-linejoin="round"/>
</svg>
