<svg width="25" height="25" viewBox="0 0 25 25" fill="none" xmlns="http://www.w3.org/2000/svg">
<path d="M17.9653 5.74871H19.5368M7.75105 1.03442H17.1796C18.8467 1.03442 20.4455 1.69667 21.6243 2.87547C22.8031 4.05427 23.4653 5.65306 23.4653 7.32014V16.7487C23.4653 18.4158 22.8031 20.0146 21.6243 21.1934C20.4455 22.3722 18.8467 23.0344 17.1796 23.0344H7.75105C6.08397 23.0344 4.48518 22.3722 3.30638 21.1934C2.12758 20.0146 1.46533 18.4158 1.46533 16.7487V7.32014C1.46533 5.65306 2.12758 4.05427 3.30638 2.87547C4.48518 1.69667 6.08397 1.03442 7.75105 1.03442ZM12.4653 16.7487C11.215 16.7487 10.0159 16.252 9.13183 15.3679C8.24773 14.4838 7.75105 13.2847 7.75105 12.0344C7.75105 10.7841 8.24773 9.58502 9.13183 8.70092C10.0159 7.81682 11.215 7.32014 12.4653 7.32014C13.7156 7.32014 14.9147 7.81682 15.7988 8.70092C16.6829 9.58502 17.1796 10.7841 17.1796 12.0344C17.1796 13.2847 16.6829 14.4838 15.7988 15.3679C14.9147 16.252 13.7156 16.7487 12.4653 16.7487Z" stroke="#EEEEEE" stroke-width="2"/>
</svg>
