<svg width="1440" height="424" viewBox="0 0 1440 424" fill="none" xmlns="http://www.w3.org/2000/svg">
<mask id="path-1-inside-1_162_399" fill="white">
<path fill-rule="evenodd" clip-rule="evenodd" d="M659.531 0H-75V424H1492V0H1242.14L1024.46 200.029C983.799 237.399 917.867 237.399 877.202 200.029L659.531 0Z"/>
</mask>
<path fill-rule="evenodd" clip-rule="evenodd" d="M659.531 0H-75V424H1492V0H1242.14L1024.46 200.029C983.799 237.399 917.867 237.399 877.202 200.029L659.531 0Z" fill="#222831"/>
<path d="M-75 0V-3C-76.6569 -3 -78 -1.65685 -78 0L-75 0ZM659.531 0L661.561 -2.20894C661.008 -2.71768 660.283 -3 659.531 -3V0ZM-75 424H-78C-78 425.657 -76.6569 427 -75 427V424ZM1492 424V427C1493.66 427 1495 425.657 1495 424H1492ZM1492 0H1495C1495 -1.65685 1493.66 -3 1492 -3V0ZM1242.14 0V-3C1241.38 -3 1240.66 -2.71768 1240.11 -2.20894L1242.14 0ZM1024.46 200.029L1022.43 197.82L1022.43 197.82L1024.46 200.029ZM877.202 200.029L879.232 197.82L879.232 197.82L877.202 200.029ZM-75 3H659.531V-3H-75V3ZM-72 424V0H-78V424H-72ZM1492 421H-75V427H1492V421ZM1489 0V424H1495V0H1489ZM1242.14 3H1492V-3H1242.14V3ZM1240.11 -2.20894L1022.43 197.82L1026.49 202.238L1244.17 2.20894L1240.11 -2.20894ZM1022.43 197.82C982.917 234.135 918.75 234.135 879.232 197.82L875.172 202.238C916.985 240.663 984.681 240.663 1026.49 202.238L1022.43 197.82ZM879.232 197.82L661.561 -2.20894L657.501 2.20894L875.172 202.238L879.232 197.82Z" fill="#00ADB5" mask="url(#path-1-inside-1_162_399)"/>
</svg>
