<svg width="84" height="50" viewBox="0 0 84 50" fill="none" xmlns="http://www.w3.org/2000/svg">
<path d="M40.3284 20.2251L35.556 28.4866C35.3435 28.8547 35.0378 29.1603 34.6697 29.3728C34.3017 29.5853 33.8842 29.6972 33.4591 29.6972C33.0341 29.6972 32.6166 29.5853 32.2485 29.3728C31.8805 29.1603 31.5748 28.8547 31.3623 28.4866L30.7473 27.4213C30.5348 27.0532 30.2291 26.7476 29.861 26.5351C29.4929 26.3226 29.0754 26.2107 28.6504 26.2107C28.2254 26.2107 27.8079 26.3226 27.4398 26.5351C27.0717 26.7476 26.7661 27.0532 26.5536 27.4213L14.217 48.7893C14.0045 49.1574 13.6988 49.4631 13.3307 49.6756C12.9627 49.8881 12.5451 50 12.1201 50H2.5753C2.15028 50 1.73275 49.8881 1.36467 49.6756C0.996592 49.4631 0.690939 49.1574 0.478432 48.7893C0.265924 48.4212 0.15405 48.0037 0.154053 47.5787C0.154055 47.1536 0.265935 46.7361 0.478447 46.368L26.5463 1.21055C26.7588 0.842493 27.0645 0.536858 27.4326 0.324364C27.8006 0.111869 28.2181 0 28.6432 0C29.0682 0 29.4857 0.111869 29.8538 0.324364C30.2218 0.536858 30.5275 0.842493 30.74 1.21055L40.3211 17.8038C40.5348 18.1713 40.6479 18.5885 40.6492 19.0135C40.6504 19.4385 40.5398 19.8564 40.3284 20.2251Z" fill="#00ADB5"/>
<path d="M54.842 49.9999H45.1446C44.7313 50.0005 44.3251 49.892 43.9672 49.6854C43.6092 49.4788 43.3121 49.1814 43.1059 48.8232C42.8988 48.4656 42.7898 48.0596 42.7898 47.6464C42.7898 47.2332 42.8988 46.8273 43.1059 46.4697L47.9485 38.0701C48.1551 37.7127 48.4522 37.4159 48.8098 37.2095C49.1675 37.0032 49.5731 36.8945 49.986 36.8945C50.3989 36.8945 50.8046 37.0032 51.1622 37.2095C51.5198 37.4159 51.8169 37.7127 52.0236 38.0701L56.8662 46.4697C57.0722 46.8264 57.1809 47.231 57.1815 47.6429C57.1821 48.0549 57.0746 48.4598 56.8697 48.8171C56.6648 49.1745 56.3697 49.4718 56.0138 49.6794C55.658 49.887 55.2539 49.9975 54.842 49.9999Z" fill="#00ADB5"/>
<path d="M80.8735 50H71.3408C70.9158 50 70.4983 49.8881 70.1302 49.6756C69.7621 49.4631 69.4565 49.1574 69.2439 48.7893L56.8952 27.4213C56.6827 27.0532 56.3771 26.7476 56.009 26.5351C55.6409 26.3226 55.2234 26.2107 54.7984 26.2107C54.3734 26.2107 53.9559 26.3226 53.5878 26.5351C53.2197 26.7476 52.9141 27.0532 52.7015 27.4213L40.3674 48.7893C40.1549 49.1574 39.8492 49.4631 39.4811 49.6756C39.1131 49.8881 38.6955 50 38.2705 50H28.7257C28.3007 50 27.8831 49.8881 27.5151 49.6756C27.147 49.4631 26.8413 49.1574 26.6288 48.7893C26.4163 48.4212 26.3044 48.0037 26.3044 47.5787C26.3044 47.1536 26.4163 46.7361 26.6288 46.368L52.6967 1.21055C52.9092 0.842493 53.2149 0.536858 53.5829 0.324364C53.951 0.111869 54.3685 0 54.7935 0C55.2186 0 55.6361 0.111869 56.0041 0.324364C56.3722 0.536858 56.6779 0.842493 56.8904 1.21055L82.9631 46.368C83.1753 46.7356 83.2872 47.1524 83.2875 47.5769C83.2878 48.0013 83.1766 48.4183 82.9649 48.7862C82.7533 49.154 82.4487 49.4598 82.0816 49.6729C81.7145 49.8859 81.2979 49.9987 80.8735 50Z" fill="#EEEEEE"/>
</svg>
