<svg width="79" height="79" viewBox="0 0 79 79" fill="none" xmlns="http://www.w3.org/2000/svg">
<path fill-rule="evenodd" clip-rule="evenodd" d="M52.4345 64.7972C52.4348 65.0532 52.3847 65.3067 52.2869 65.5433C52.189 65.7798 52.0455 65.9947 51.8645 66.1758C51.6835 66.3568 51.4686 66.5003 51.232 66.5981C50.9955 66.6959 50.742 66.7461 50.486 66.7457L28.4688 66.7457C28.2128 66.7461 27.9593 66.6959 27.7227 66.5981C27.4862 66.5003 27.2712 66.3568 27.0902 66.1758C26.9092 65.9947 26.7657 65.7798 26.6679 65.5433C26.5701 65.3067 26.5199 65.0532 26.5203 64.7972L26.5203 54.328L19.6839 42.9286C19.1631 42.0608 18.8769 41.0726 18.8532 40.0608C18.8296 39.049 19.0694 38.0485 19.549 37.1573L39.4774 0.143646L59.4085 37.1601C59.8871 38.0506 60.1264 39.0501 60.1027 40.0608C60.0791 41.0715 59.7934 42.0587 59.2736 42.9259L52.4345 54.3225L52.4345 64.7972ZM49.3851 51.8401L55.9353 40.925C56.1092 40.6354 56.2047 40.3054 56.2125 39.9676C56.2202 39.6298 56.1398 39.2958 55.9793 38.9985L39.4801 8.35332L22.9755 39.004C22.8169 39.3006 22.7378 39.6331 22.746 39.9693C22.7542 40.3055 22.8494 40.6338 23.0223 40.9223L29.5724 51.8428L49.3879 51.8428L49.3851 51.8401Z" fill="#00ADB5"/>
<path fill-rule="evenodd" clip-rule="evenodd" d="M39.3124 8.66464L36.7253 34.5239C36.181 35.0682 35.8103 35.7617 35.6601 36.5167C35.51 37.2717 35.587 38.0543 35.8816 38.7655C36.1762 39.4767 36.6751 40.0845 37.3151 40.5122C37.9552 40.9399 38.7077 41.1681 39.4775 41.1681C40.2473 41.1681 40.9998 40.9399 41.6398 40.5122C42.2799 40.0845 42.7788 39.4767 43.0733 38.7655C43.3679 38.0543 43.445 37.2717 43.2948 36.5167C43.1447 35.7617 42.774 35.0682 42.2296 34.5239L39.6426 8.66464L39.4775 8.3564L39.3124 8.66464V8.66464Z" fill="#00ADB5"/>
</svg>
